<?xml version="1.0" standalone="no"?>
<!DOCTYPE svg PUBLIC "-//W3C//DTD SVG 20010904//EN"
 "http://www.w3.org/TR/2001/REC-SVG-20010904/DTD/svg10.dtd">
<svg version="1.0" xmlns="http://www.w3.org/2000/svg"
 width="369.000000pt" height="369.000000pt" viewBox="0 0 369.000000 369.000000"
 preserveAspectRatio="xMidYMid meet">
<metadata>
Created by potrace 1.11, written by Peter Selinger 2001-2013
</metadata>
<g transform="translate(0.000000,369.000000) scale(0.100000,-0.100000)"
fill="#000000" stroke="none">
<path d="M1655 3044 c-16 -2 -79 -9 -140 -15 -239 -23 -535 -97 -736 -183
-201 -85 -336 -174 -454 -298 -83 -86 -124 -148 -161 -243 -25 -62 -28 -83
-28 -185 0 -102 3 -123 28 -185 77 -198 262 -373 531 -504 114 -56 287 -117
422 -151 l93 -22 47 23 c36 18 54 35 71 69 37 75 33 84 -50 99 -40 7 -126 28
-191 47 -359 103 -623 276 -719 472 -30 60 -33 76 -33 152 0 76 4 93 32 151
114 231 463 429 913 519 223 44 333 55 595 55 262 0 372 -11 595 -55 449 -90
799 -288 912 -517 30 -61 33 -76 33 -153 0 -76 -3 -92 -33 -152 -131 -266
-569 -484 -1107 -551 l-100 -13 -13 -39 c-21 -65 17 -130 88 -148 31 -8 227
24 381 63 347 88 595 215 780 399 152 152 204 264 204 441 0 128 -23 204 -94
312 -50 77 -161 189 -246 250 -231 165 -597 291 -996 344 -116 15 -553 28
-624 18z"/>
<path d="M1521 2668 c-5 -13 -113 -263 -240 -557 -127 -293 -231 -537 -231
-542 0 -5 95 -9 210 -9 116 0 210 -2 210 -4 0 -2 -108 -279 -240 -616 -132
-336 -240 -618 -240 -626 0 -9 4 -14 9 -12 20 6 1671 1643 1671 1655 0 10 -64
13 -306 13 -287 0 -306 1 -301 18 3 9 71 164 151 345 80 180 146 334 146 342
0 13 -54 15 -415 15 l-415 0 -9 -22z"/>
</g>
</svg>
